<svg class="svg-ico-viber" xmlns="http://www.w3.org/2000/svg" width="60" height="60" viewBox="0 0 60 60"><path d="M30 60C13.4 60 0 46.6 0 30 0 13.4 13.4 0 30 0 46.6 0 60 13.4 60 30 60 46.6 46.6 60 30 60ZM43.5 17.6C42.6 16.8 38.9 14.1 30.7 14.1 30.7 14.1 20.9 13.5 16.2 17.8 13.5 20.5 12.6 24.3 12.5 29.1 12.4 33.9 12.3 42.9 21 45.4 21 45.4 21 45.4 21 45.4L21 49.1C21 49.1 20.9 50.6 21.9 50.9 23.1 51.3 23.8 50.1 24.9 48.9 25.6 48.2 26.4 47.2 27.1 46.4 33 46.9 37.6 45.8 38.1 45.6 39.3 45.2 46 44.4 47.1 35.4 48.3 26.1 46.6 20.3 43.5 17.6ZM37.1 43C36.7 43.2 32.7 44.2 27.7 43.8 27.7 43.8 23.9 48.4 22.7 49.5 22.6 49.7 22.3 49.8 22.2 49.8 22 49.7 21.9 49.5 21.9 49.1 22 48.6 22 42.9 22 42.9 22 42.9 22 42.9 22 42.9 14.7 40.9 15.1 33.3 15.2 29.3 15.2 25.3 16 22 18.2 19.8 22.3 16.1 30.5 16.7 30.5 16.7 37.5 16.7 40.8 18.8 41.6 19.5 44.2 21.7 45.5 27 44.6 34.7 43.6 42.2 38.1 42.7 37.1 43ZM25.3 29.1C25.3 29.1 25.2 28.4 25.7 28.1L26.5 27.4C27 27.1 27.2 26.3 26.8 25.5 26.1 24.2 25 22.8 24.4 22.2 24 21.7 23.4 21.6 22.7 21.9 22.7 21.9 22.7 21.9 22.7 21.9 22.1 22.3 21.5 22.7 20.9 23.3 20.9 23.3 20.9 23.3 20.9 23.4 20.4 24 20 24.8 20.3 25.6L20.3 25.7C21.1 28.3 23.7 33.1 27.5 36.1 29.7 37.9 33.3 39.7 34.8 40.2L34.8 40.2C35.7 40.4 36.4 40.1 37.1 39.6 37.1 39.5 37.1 39.5 37.1 39.5 37.7 39 38.2 38.4 38.6 37.8 38.6 37.8 38.6 37.8 38.6 37.8 38.9 37.1 38.8 36.5 38.3 36 37.4 35.2 36 34.3 35 33.7 34.2 33.2 33.4 33.5 33.1 33.9L32.4 34.8C32 35.2 31.4 35.2 31.4 35.2 26.6 34 25.3 29.1 25.3 29.1ZM34.6 25.8C35.6 26.8 36 28.1 36 29.7 36 30 36.2 30.2 36.5 30.2 36.5 30.2 36.5 30.2 36.5 30.2 36.7 30.2 36.9 30 36.9 29.7 37 27.9 36.4 26.4 35.3 25.1 34.2 23.9 32.6 23.2 30.6 23.1 30.3 23.1 30.1 23.2 30.1 23.5 30.1 23.8 30.3 24 30.5 24 32.3 24.1 33.6 24.7 34.6 25.8ZM30.8 26C30.8 26.3 31 26.5 31.3 26.5 32.8 26.6 33.5 27.4 33.6 29 33.6 29.2 33.8 29.4 34.1 29.4 34.1 29.4 34.1 29.4 34.1 29.4 34.4 29.4 34.5 29.2 34.5 28.9 34.4 26.8 33.3 25.7 31.3 25.6 31 25.6 30.8 25.8 30.8 26ZM36.6 23.4C34.8 21.6 32.5 20.7 29.8 20.7 29.8 20.7 29.7 20.7 29.7 20.7 29.5 20.7 29.3 20.9 29.3 21.1 29.3 21.4 29.5 21.6 29.7 21.6 32.2 21.6 34.3 22.4 35.9 24 37.6 25.6 38.4 27.9 38.5 30.7 38.5 31 38.7 31.2 38.9 31.2L38.9 31.2C39.2 31.2 39.4 30.9 39.4 30.7 39.4 27.6 38.4 25.2 36.6 23.4Z" fill="#28e4cc"></path></svg>