<svg class="svg-ico-telegram" xmlns="http://www.w3.org/2000/svg" width="60" height="60" viewBox="0 0 60 60"><path d="M30 60C13.4 60 0 46.6 0 30 0 13.4 13.4 0 30 0 46.6 0 60 13.4 60 30 60 46.6 46.6 60 30 60ZM45.8 16.1C45.5 15.8 45.1 15.8 44.7 15.9 38.6 18.2 19.7 25.2 12 28.1 11.6 28.3 11.2 28.7 11.3 29.2 11.3 29.8 11.6 30.2 12.1 30.4 15.6 31.4 20.1 32.8 20.1 32.8 20.1 32.8 22.2 39.2 23.3 42.5 23.5 42.9 23.8 43.2 24.2 43.3 24.6 43.4 25.1 43.3 25.4 43 27.2 41.3 29.9 38.8 29.9 38.8 29.9 38.8 35.1 42.6 38.1 44.7 38.5 45 39.1 45.1 39.7 44.9 40.2 44.7 40.6 44.2 40.7 43.7 42 37.7 45.1 22.6 46.2 17.2 46.3 16.8 46.2 16.4 45.8 16.1ZM25 35L24.5 40.1 22 32C22 32 33.1 24.9 39.3 20.9 39.5 20.8 39.8 20.9 39.9 21 40 21.2 40 21.4 39.8 21.6 34.5 26.5 25 35 25 35Z" fill="#28e4cc"></path></svg>