<svg viewBox="0 0 90 21" xmlns="http://www.w3.org/2000/svg" height="21" width="90"><path d="M63.756,2.793h8.424c0.754,0,1.366-0.625,1.366-1.397C73.547,0.625,72.935,0,72.181,0h-8.424 c-4.006,0-7.265,3.333-7.265,7.429v1.397h14.114c-0.586,1.909-2.329,3.336-4.324,3.336h-8.303c-0.754,0-1.366,0.626-1.366,1.397 c0,0.771,0.611,1.396,1.366,1.396h8.303c4.006,0,7.265-3.376,7.265-7.526V6.033H59.433C60.014,4.157,61.732,2.793,63.756,2.793z M47.437,0h-2.516c-4.006,0-7.265,3.333-7.265,7.429v6.14c0,0.772,0.611,1.397,1.366,1.397c0.754,0,1.366-0.625,1.366-1.397V8.826 h11.584v4.743c0,0.772,0.612,1.397,1.366,1.397c0.754,0,1.366-0.625,1.366-1.397v-6.14C54.702,3.333,51.443,0,47.437,0z M40.597,6.033c0.581-1.876,2.299-3.24,4.324-3.24h2.516c2.024,0,3.743,1.364,4.324,3.24H40.597z M28.613,0h-2.517 c-4.006,0-7.266,3.333-7.266,7.429v6.152c0,0.771,0.611,1.396,1.366,1.396c0.754,0,1.366-0.625,1.366-1.396V8.826h4.881 l7.223,5.839c0.251,0.202,0.549,0.301,0.846,0.301c0.403,0,0.803-0.182,1.072-0.531c0.468-0.605,0.367-1.484-0.225-1.962 l-4.512-3.647h5.031V7.429C35.879,3.333,32.619,0,28.613,0z M21.772,6.033c0.581-1.876,2.299-3.24,4.324-3.24h2.517 c2.024,0,3.743,1.364,4.324,3.24H21.772z M9.783,0H1.372C0.617,0,0.006,0.625,0.006,1.396c0,0.772,0.612,1.397,1.366,1.397h8.411 c2.024,0,3.743,1.364,4.324,3.24H0.008l-0.002,7.539c0,0.771,0.612,1.396,1.366,1.396c0.754,0,1.366-0.625,1.366-1.396V8.826 h14.311V7.429C17.049,3.333,13.789,0,9.783,0z"></path><path d="M89.994,13.499c0,4.141-3.283,7.498-7.333,7.498c-4.05,0-7.333-3.357-7.333-7.498S78.611,6,82.661,6 C86.711,6,89.994,9.357,89.994,13.499z"></path></svg>