<svg xmlns="http://www.w3.org/2000/svg" xmlns:xlink="http://www.w3.org/1999/xlink" width="720" height="720" viewBox="0 0 720 720"><svg width="60" height="60" viewBox="0 0 60 60" id="facebook" x="0" y="0"><path d="M37.5 20h-3.4c-1.3 0-1.6.6-1.6 1.9V25h5l-.5 5h-4.5v17.5H25V30h-5v-5h5v-5.8c0-4.4 2.3-6.7 7.6-6.7h4.9V20zM30 0C13.4 0 0 13.4 0 30s13.4 30 30 30 30-13.4 30-30S46.6 0 30 0z" fill="#28e4cc"></path></svg><svg width="60" height="60" viewBox="0 0 60 60" id="facebook--hover" x="60" y="60"><path d="M37.5 20h-3.4c-1.3 0-1.6.6-1.6 1.9V25h5l-.5 5h-4.5v17.5H25V30h-5v-5h5v-5.8c0-4.4 2.3-6.7 7.6-6.7h4.9V20zM30 0C13.4 0 0 13.4 0 30s13.4 30 30 30 30-13.4 30-30S46.6 0 30 0z" fill="#ab52ff"></path></svg><svg width="60" height="60" viewBox="0 0 60 60" id="facebook-alt-color" x="120" y="120"><path d="M37.5 20h-3.4c-1.3 0-1.6.6-1.6 1.9V25h5l-.5 5h-4.5v17.5H25V30h-5v-5h5v-5.8c0-4.4 2.3-6.7 7.6-6.7h4.9V20zM30 0C13.4 0 0 13.4 0 30s13.4 30 30 30 30-13.4 30-30S46.6 0 30 0z" fill="#339"></path></svg><svg width="60" height="60" viewBox="0 0 60 60" id="facebook-alt-color--hover" x="180" y="180"><path d="M37.5 20h-3.4c-1.3 0-1.6.6-1.6 1.9V25h5l-.5 5h-4.5v17.5H25V30h-5v-5h5v-5.8c0-4.4 2.3-6.7 7.6-6.7h4.9V20zM30 0C13.4 0 0 13.4 0 30s13.4 30 30 30 30-13.4 30-30S46.6 0 30 0z" fill="#242473"></path></svg><svg width="60" height="60" viewBox="0 0 60 60" id="telegram" x="240" y="240"><path d="M30 60C13.4 60 0 46.6 0 30S13.4 0 30 0s30 13.4 30 30-13.4 30-30 30zm15.8-43.9c-.3-.3-.7-.3-1.1-.2-6.1 2.3-25 9.3-32.7 12.2-.4.2-.8.6-.7 1.1 0 .6.3 1 .8 1.2 3.5 1 8 2.4 8 2.4s2.1 6.4 3.2 9.7c.2.4.5.7.9.8.4.1.9 0 1.2-.3 1.8-1.7 4.5-4.2 4.5-4.2s5.2 3.8 8.2 5.9c.4.3 1 .4 1.6.2.5-.2.9-.7 1-1.2 1.3-6 4.4-21.1 5.5-26.5.1-.4 0-.8-.4-1.1zM25 35l-.5 5.1L22 32s11.1-7.1 17.3-11.1c.2-.1.5 0 .6.1.1.2.1.4-.1.6C34.5 26.5 25 35 25 35z" fill="#28e4cc"></path></svg><svg width="60" height="60" viewBox="0 0 60 60" id="telegram--hover" x="300" y="300"><path d="M30 60C13.4 60 0 46.6 0 30S13.4 0 30 0s30 13.4 30 30-13.4 30-30 30zm15.8-43.9c-.3-.3-.7-.3-1.1-.2-6.1 2.3-25 9.3-32.7 12.2-.4.2-.8.6-.7 1.1 0 .6.3 1 .8 1.2 3.5 1 8 2.4 8 2.4s2.1 6.4 3.2 9.7c.2.4.5.7.9.8.4.1.9 0 1.2-.3 1.8-1.7 4.5-4.2 4.5-4.2s5.2 3.8 8.2 5.9c.4.3 1 .4 1.6.2.5-.2.9-.7 1-1.2 1.3-6 4.4-21.1 5.5-26.5.1-.4 0-.8-.4-1.1zM25 35l-.5 5.1L22 32s11.1-7.1 17.3-11.1c.2-.1.5 0 .6.1.1.2.1.4-.1.6C34.5 26.5 25 35 25 35z" fill="#ab52ff"></path></svg><svg width="60" height="60" viewBox="0 0 60 60" id="telegram-alt-color" x="360" y="360"><path d="M30 60C13.4 60 0 46.6 0 30S13.4 0 30 0s30 13.4 30 30-13.4 30-30 30zm15.8-43.9c-.3-.3-.7-.3-1.1-.2-6.1 2.3-25 9.3-32.7 12.2-.4.2-.8.6-.7 1.1 0 .6.3 1 .8 1.2 3.5 1 8 2.4 8 2.4s2.1 6.4 3.2 9.7c.2.4.5.7.9.8.4.1.9 0 1.2-.3 1.8-1.7 4.5-4.2 4.5-4.2s5.2 3.8 8.2 5.9c.4.3 1 .4 1.6.2.5-.2.9-.7 1-1.2 1.3-6 4.4-21.1 5.5-26.5.1-.4 0-.8-.4-1.1zM25 35l-.5 5.1L22 32s11.1-7.1 17.3-11.1c.2-.1.5 0 .6.1.1.2.1.4-.1.6C34.5 26.5 25 35 25 35z" fill="#339"></path></svg><svg width="60" height="60" viewBox="0 0 60 60" id="telegram-alt-color--hover" x="420" y="420"><path d="M30 60C13.4 60 0 46.6 0 30S13.4 0 30 0s30 13.4 30 30-13.4 30-30 30zm15.8-43.9c-.3-.3-.7-.3-1.1-.2-6.1 2.3-25 9.3-32.7 12.2-.4.2-.8.6-.7 1.1 0 .6.3 1 .8 1.2 3.5 1 8 2.4 8 2.4s2.1 6.4 3.2 9.7c.2.4.5.7.9.8.4.1.9 0 1.2-.3 1.8-1.7 4.5-4.2 4.5-4.2s5.2 3.8 8.2 5.9c.4.3 1 .4 1.6.2.5-.2.9-.7 1-1.2 1.3-6 4.4-21.1 5.5-26.5.1-.4 0-.8-.4-1.1zM25 35l-.5 5.1L22 32s11.1-7.1 17.3-11.1c.2-.1.5 0 .6.1.1.2.1.4-.1.6C34.5 26.5 25 35 25 35z" fill="#242473"></path></svg><svg width="60" height="60" viewBox="0 0 60 60" id="viber" x="480" y="480"><path d="M30 60C13.4 60 0 46.6 0 30S13.4 0 30 0s30 13.4 30 30-13.4 30-30 30zm13.5-42.4c-.9-.8-4.6-3.5-12.8-3.5 0 0-9.8-.6-14.5 3.7-2.7 2.7-3.6 6.5-3.7 11.3-.1 4.8-.2 13.8 8.5 16.3v3.7s-.1 1.5.9 1.8c1.2.4 1.9-.8 3-2 .7-.7 1.5-1.7 2.2-2.5 5.9.5 10.5-.6 11-.8 1.2-.4 7.9-1.2 9-10.2 1.2-9.3-.5-15.1-3.6-17.8zM37.1 43c-.4.2-4.4 1.2-9.4.8 0 0-3.8 4.6-5 5.7-.1.2-.4.3-.5.3-.2-.1-.3-.3-.3-.7.1-.5.1-6.2.1-6.2-7.3-2-6.9-9.6-6.8-13.6 0-4 .8-7.3 3-9.5 4.1-3.7 12.3-3.1 12.3-3.1 7 0 10.3 2.1 11.1 2.8 2.6 2.2 3.9 7.5 3 15.2-1 7.5-6.5 8-7.5 8.3zM25.3 29.1s-.1-.7.4-1l.8-.7c.5-.3.7-1.1.3-1.9-.7-1.3-1.8-2.7-2.4-3.3-.4-.5-1-.6-1.7-.3-.6.4-1.2.8-1.8 1.4v.1c-.5.6-.9 1.4-.6 2.2v.1c.8 2.6 3.4 7.4 7.2 10.4 2.2 1.8 5.8 3.6 7.3 4.1.9.2 1.6-.1 2.3-.6v-.1c.6-.5 1.1-1.1 1.5-1.7.3-.7.2-1.3-.3-1.8-.9-.8-2.3-1.7-3.3-2.3-.8-.5-1.6-.2-1.9.2l-.7.9c-.4.4-1 .4-1 .4-4.8-1.2-6.1-6.1-6.1-6.1zm9.3-3.3c1 1 1.4 2.3 1.4 3.9 0 .3.2.5.5.5.2 0 .4-.2.4-.5.1-1.8-.5-3.3-1.6-4.6-1.1-1.2-2.7-1.9-4.7-2-.3 0-.5.1-.5.4 0 .3.2.5.4.5 1.8.1 3.1.7 4.1 1.8zm-3.8.2c0 .3.2.5.5.5 1.5.1 2.2.9 2.3 2.5 0 .2.2.4.5.4s.4-.2.4-.5c-.1-2.1-1.2-3.2-3.2-3.3-.3 0-.5.2-.5.4zm5.8-2.6c-1.8-1.8-4.1-2.7-6.8-2.7h-.1c-.2 0-.4.2-.4.4 0 .3.2.5.4.5 2.5 0 4.6.8 6.2 2.4 1.7 1.6 2.5 3.9 2.6 6.7 0 .3.2.5.4.5.3 0 .5-.3.5-.5 0-3.1-1-5.5-2.8-7.3z" fill="#28e4cc"></path></svg><svg width="60" height="60" viewBox="0 0 60 60" id="viber--hover" x="540" y="540"><path d="M30 60C13.4 60 0 46.6 0 30S13.4 0 30 0s30 13.4 30 30-13.4 30-30 30zm13.5-42.4c-.9-.8-4.6-3.5-12.8-3.5 0 0-9.8-.6-14.5 3.7-2.7 2.7-3.6 6.5-3.7 11.3-.1 4.8-.2 13.8 8.5 16.3v3.7s-.1 1.5.9 1.8c1.2.4 1.9-.8 3-2 .7-.7 1.5-1.7 2.2-2.5 5.9.5 10.5-.6 11-.8 1.2-.4 7.9-1.2 9-10.2 1.2-9.3-.5-15.1-3.6-17.8zM37.1 43c-.4.2-4.4 1.2-9.4.8 0 0-3.8 4.6-5 5.7-.1.2-.4.3-.5.3-.2-.1-.3-.3-.3-.7.1-.5.1-6.2.1-6.2-7.3-2-6.9-9.6-6.8-13.6 0-4 .8-7.3 3-9.5 4.1-3.7 12.3-3.1 12.3-3.1 7 0 10.3 2.1 11.1 2.8 2.6 2.2 3.9 7.5 3 15.2-1 7.5-6.5 8-7.5 8.3zM25.3 29.1s-.1-.7.4-1l.8-.7c.5-.3.7-1.1.3-1.9-.7-1.3-1.8-2.7-2.4-3.3-.4-.5-1-.6-1.7-.3-.6.4-1.2.8-1.8 1.4v.1c-.5.6-.9 1.4-.6 2.2v.1c.8 2.6 3.4 7.4 7.2 10.4 2.2 1.8 5.8 3.6 7.3 4.1.9.2 1.6-.1 2.3-.6v-.1c.6-.5 1.1-1.1 1.5-1.7.3-.7.2-1.3-.3-1.8-.9-.8-2.3-1.7-3.3-2.3-.8-.5-1.6-.2-1.9.2l-.7.9c-.4.4-1 .4-1 .4-4.8-1.2-6.1-6.1-6.1-6.1zm9.3-3.3c1 1 1.4 2.3 1.4 3.9 0 .3.2.5.5.5.2 0 .4-.2.4-.5.1-1.8-.5-3.3-1.6-4.6-1.1-1.2-2.7-1.9-4.7-2-.3 0-.5.1-.5.4 0 .3.2.5.4.5 1.8.1 3.1.7 4.1 1.8zm-3.8.2c0 .3.2.5.5.5 1.5.1 2.2.9 2.3 2.5 0 .2.2.4.5.4s.4-.2.4-.5c-.1-2.1-1.2-3.2-3.2-3.3-.3 0-.5.2-.5.4zm5.8-2.6c-1.8-1.8-4.1-2.7-6.8-2.7h-.1c-.2 0-.4.2-.4.4 0 .3.2.5.4.5 2.5 0 4.6.8 6.2 2.4 1.7 1.6 2.5 3.9 2.6 6.7 0 .3.2.5.4.5.3 0 .5-.3.5-.5 0-3.1-1-5.5-2.8-7.3z" fill="#ab52ff"></path></svg><svg width="60" height="60" viewBox="0 0 60 60" id="viber-alt-color" x="600" y="600"><path d="M30 60C13.4 60 0 46.6 0 30S13.4 0 30 0s30 13.4 30 30-13.4 30-30 30zm13.5-42.4c-.9-.8-4.6-3.5-12.8-3.5 0 0-9.8-.6-14.5 3.7-2.7 2.7-3.6 6.5-3.7 11.3-.1 4.8-.2 13.8 8.5 16.3v3.7s-.1 1.5.9 1.8c1.2.4 1.9-.8 3-2 .7-.7 1.5-1.7 2.2-2.5 5.9.5 10.5-.6 11-.8 1.2-.4 7.9-1.2 9-10.2 1.2-9.3-.5-15.1-3.6-17.8zM37.1 43c-.4.2-4.4 1.2-9.4.8 0 0-3.8 4.6-5 5.7-.1.2-.4.3-.5.3-.2-.1-.3-.3-.3-.7.1-.5.1-6.2.1-6.2-7.3-2-6.9-9.6-6.8-13.6 0-4 .8-7.3 3-9.5 4.1-3.7 12.3-3.1 12.3-3.1 7 0 10.3 2.1 11.1 2.8 2.6 2.2 3.9 7.5 3 15.2-1 7.5-6.5 8-7.5 8.3zM25.3 29.1s-.1-.7.4-1l.8-.7c.5-.3.7-1.1.3-1.9-.7-1.3-1.8-2.7-2.4-3.3-.4-.5-1-.6-1.7-.3-.6.4-1.2.8-1.8 1.4v.1c-.5.6-.9 1.4-.6 2.2v.1c.8 2.6 3.4 7.4 7.2 10.4 2.2 1.8 5.8 3.6 7.3 4.1.9.2 1.6-.1 2.3-.6v-.1c.6-.5 1.1-1.1 1.5-1.7.3-.7.2-1.3-.3-1.8-.9-.8-2.3-1.7-3.3-2.3-.8-.5-1.6-.2-1.9.2l-.7.9c-.4.4-1 .4-1 .4-4.8-1.2-6.1-6.1-6.1-6.1zm9.3-3.3c1 1 1.4 2.3 1.4 3.9 0 .3.2.5.5.5.2 0 .4-.2.4-.5.1-1.8-.5-3.3-1.6-4.6-1.1-1.2-2.7-1.9-4.7-2-.3 0-.5.1-.5.4 0 .3.2.5.4.5 1.8.1 3.1.7 4.1 1.8zm-3.8.2c0 .3.2.5.5.5 1.5.1 2.2.9 2.3 2.5 0 .2.2.4.5.4s.4-.2.4-.5c-.1-2.1-1.2-3.2-3.2-3.3-.3 0-.5.2-.5.4zm5.8-2.6c-1.8-1.8-4.1-2.7-6.8-2.7h-.1c-.2 0-.4.2-.4.4 0 .3.2.5.4.5 2.5 0 4.6.8 6.2 2.4 1.7 1.6 2.5 3.9 2.6 6.7 0 .3.2.5.4.5.3 0 .5-.3.5-.5 0-3.1-1-5.5-2.8-7.3z" fill="#339"></path></svg><svg width="60" height="60" viewBox="0 0 60 60" id="viber-alt-color--hover" x="660" y="660"><path d="M30 60C13.4 60 0 46.6 0 30S13.4 0 30 0s30 13.4 30 30-13.4 30-30 30zm13.5-42.4c-.9-.8-4.6-3.5-12.8-3.5 0 0-9.8-.6-14.5 3.7-2.7 2.7-3.6 6.5-3.7 11.3-.1 4.8-.2 13.8 8.5 16.3v3.7s-.1 1.5.9 1.8c1.2.4 1.9-.8 3-2 .7-.7 1.5-1.7 2.2-2.5 5.9.5 10.5-.6 11-.8 1.2-.4 7.9-1.2 9-10.2 1.2-9.3-.5-15.1-3.6-17.8zM37.1 43c-.4.2-4.4 1.2-9.4.8 0 0-3.8 4.6-5 5.7-.1.2-.4.3-.5.3-.2-.1-.3-.3-.3-.7.1-.5.1-6.2.1-6.2-7.3-2-6.9-9.6-6.8-13.6 0-4 .8-7.3 3-9.5 4.1-3.7 12.3-3.1 12.3-3.1 7 0 10.3 2.1 11.1 2.8 2.6 2.2 3.9 7.5 3 15.2-1 7.5-6.5 8-7.5 8.3zM25.3 29.1s-.1-.7.4-1l.8-.7c.5-.3.7-1.1.3-1.9-.7-1.3-1.8-2.7-2.4-3.3-.4-.5-1-.6-1.7-.3-.6.4-1.2.8-1.8 1.4v.1c-.5.6-.9 1.4-.6 2.2v.1c.8 2.6 3.4 7.4 7.2 10.4 2.2 1.8 5.8 3.6 7.3 4.1.9.2 1.6-.1 2.3-.6v-.1c.6-.5 1.1-1.1 1.5-1.7.3-.7.2-1.3-.3-1.8-.9-.8-2.3-1.7-3.3-2.3-.8-.5-1.6-.2-1.9.2l-.7.9c-.4.4-1 .4-1 .4-4.8-1.2-6.1-6.1-6.1-6.1zm9.3-3.3c1 1 1.4 2.3 1.4 3.9 0 .3.2.5.5.5.2 0 .4-.2.4-.5.1-1.8-.5-3.3-1.6-4.6-1.1-1.2-2.7-1.9-4.7-2-.3 0-.5.1-.5.4 0 .3.2.5.4.5 1.8.1 3.1.7 4.1 1.8zm-3.8.2c0 .3.2.5.5.5 1.5.1 2.2.9 2.3 2.5 0 .2.2.4.5.4s.4-.2.4-.5c-.1-2.1-1.2-3.2-3.2-3.3-.3 0-.5.2-.5.4zm5.8-2.6c-1.8-1.8-4.1-2.7-6.8-2.7h-.1c-.2 0-.4.2-.4.4 0 .3.2.5.4.5 2.5 0 4.6.8 6.2 2.4 1.7 1.6 2.5 3.9 2.6 6.7 0 .3.2.5.4.5.3 0 .5-.3.5-.5 0-3.1-1-5.5-2.8-7.3z" fill="#242473"></path></svg></svg>