<svg xmlns="http://www.w3.org/2000/svg" xmlns:xlink="http://www.w3.org/1999/xlink" width="360" height="360" viewBox="0 0 360 360"><svg width="24" height="24" viewBox="0 0 24 24" id="behance" x="0" y="0"><path fill="#fff" d="M8.84 10.835H6.875V8.976h1.783c1.878 0 1.646 1.859.182 1.859zm5.789 1.058h2.624c-.115-1.687-2.36-1.81-2.624 0zm-5.9.396H6.875v1.947h1.824c1.782-.001 1.673-1.947.03-1.947zM24 12c0 6.627-5.373 12-12 12S0 18.627 0 12 5.373 0 12 0s12 5.373 12 12zm-13.357-.733c1.668-.853 1.607-3.981-1.587-4.028H5v8.73h3.771c3.958 0 3.891-3.967 1.872-4.702zM14 8.101h4v-.875h-4v.875zm4.943 3.693c-.545-3.505-6.053-3.711-6.053.872 0 4.526 5.18 3.818 5.949 1.56h-1.848c-.645.748-2.508.531-2.404-1.184h4.41c.009-.555-.009-.953-.054-1.248z"></path></svg><svg width="24" height="24" viewBox="0 0 24 24" id="facebook" x="24" y="24"><path fill="#fff" d="M12 0C5.373 0 0 5.373 0 12s5.373 12 12 12 12-5.373 12-12S18.627 0 12 0zm3 8h-1.35c-.538 0-.65.221-.65.778V10h2l-.209 2H13v7h-3v-7H8v-2h2V7.692C10 5.923 10.931 5 13.029 5H15v3z"></path></svg><svg width="24" height="24" fill-rule="evenodd" clip-rule="evenodd" id="gmail" x="48" y="48"><path fill="#fff" d="M12 0C5.374 0 0 5.372 0 12c0 6.627 5.374 12 12 12 6.627 0 12-5.373 12-12 0-6.628-5.373-12-12-12zm6.001 16.917a1 1 0 0 0 .999-.999V7.999A1 1 0 0 0 18.001 7H5.999A1 1 0 0 0 5 7.999v7.919a1 1 0 0 0 .999.999h12.002zM12 13.367L6.55 9.585l-.011 6.748h10.899V9.585L12 13.367zm5.174-5.784A1822.246 1822.246 0 0 0 12 11.217L6.797 7.583h10.377z"></path></svg><svg width="24" height="24" viewBox="0 0 24 24" id="google-plus" x="72" y="72"><path fill="#fff" d="M12 0C5.373 0 0 5.373 0 12s5.373 12 12 12 12-5.373 12-12S18.627 0 12 0zM9.083 16.083C6.825 16.083 5 14.258 5 12s1.825-4.083 4.083-4.083a3.91 3.91 0 0 1 2.735 1.067l-1.107 1.068c-.304-.292-.834-.63-1.628-.63-1.394 0-2.531 1.155-2.531 2.579 0 1.424 1.138 2.579 2.531 2.579 1.616 0 2.224-1.162 2.316-1.762H9.083v-1.4h3.855c.036.204.064.408.064.677.001 2.332-1.563 3.988-3.919 3.988zm9.917-3.5h-1.75v1.75h-1.167v-1.75h-1.75v-1.166h1.75v-1.75h1.167v1.75H19v1.166z"></path></svg><svg width="24" height="24" viewBox="0 0 24 24" id="instagram" x="96" y="96"><path fill="#fff" d="M17.833 6.595v1.476a.43.43 0 0 1-.435.429h-1.465a.433.433 0 0 1-.434-.429V6.595c0-.237.195-.428.434-.428h1.465a.43.43 0 0 1 .435.428zM12 14.093c1.121 0 2.028-.908 2.028-2.029a2.028 2.028 0 1 0-4.056 0c0 1.121.907 2.029 2.028 2.029zM24 12c0 6.627-5.373 12-12 12S0 18.627 0 12 5.373 0 12 0s12 5.373 12 12zm-5-1.75h-3.953c.316.533.508 1.149.508 1.813a3.564 3.564 0 0 1-7.127 0c0-.665.191-1.281.509-1.813H5v5.996C5 17.767 6.27 19 7.791 19h8.454A2.755 2.755 0 0 0 19 16.246V10.25zm-7.009 4.559a2.748 2.748 0 0 0 2.745-2.746 2.74 2.74 0 0 0-1.614-2.5 2.732 2.732 0 0 0-2.94.437 2.739 2.739 0 0 0-.938 2.063 2.751 2.751 0 0 0 2.747 2.746zM19 7.754A2.755 2.755 0 0 0 16.245 5H9.083v2.917H8.5V5h-.583v2.917h-.584V5.045a2.786 2.786 0 0 0-.583.157v2.715h-.583V5.524A2.738 2.738 0 0 0 5 7.754v1.913h4.359a3.552 3.552 0 0 1 5.263 0H19V7.754z"></path></svg><svg width="24" height="24" viewBox="0 0 24 24" id="linkedin" x="120" y="120"><path fill="#fff" d="M12 0C5.373 0 0 5.373 0 12s5.373 12 12 12 12-5.373 12-12S18.627 0 12 0zm-2 16H8v-6h2v6zM9 9.109c-.607 0-1.1-.496-1.1-1.109 0-.612.492-1.109 1.1-1.109s1.1.497 1.1 1.109c0 .613-.493 1.109-1.1 1.109zM17 16h-1.998v-2.861c0-1.881-2.002-1.722-2.002 0V16h-2v-6h2v1.093c.872-1.616 4-1.736 4 1.548V16z"></path></svg><svg width="24" height="24" viewBox="0 0 24 24" id="pinterest" x="144" y="144"><path fill="#fff" d="M12 0C5.373 0 0 5.373 0 12s5.373 12 12 12 12-5.373 12-12S18.627 0 12 0zm0 19a6.995 6.995 0 0 1-2.073-.312c.286-.465.713-1.227.87-1.835l.437-1.664c.229.436.895.804 1.604.804 2.111 0 3.633-1.941 3.633-4.354 0-2.312-1.888-4.042-4.316-4.042-3.021 0-4.625 2.027-4.625 4.235 0 1.027.547 2.305 1.422 2.712.132.062.203.034.234-.094l.193-.793a.21.21 0 0 0-.049-.202c-.288-.35-.521-.995-.521-1.597 0-1.544 1.169-3.038 3.161-3.038 1.72 0 2.924 1.172 2.924 2.848 0 1.894-.957 3.205-2.201 3.205-.687 0-1.201-.568-1.036-1.265.197-.833.58-1.73.58-2.331 0-.537-.288-.986-.886-.986-.702 0-1.268.727-1.268 1.7 0 .621.211 1.04.211 1.04s-.694 2.934-.821 3.479c-.142.605-.086 1.454-.025 2.008A7 7 0 1 1 12 19z"></path></svg><svg width="24" height="24" viewBox="0 0 24 24" id="rss" x="168" y="168"><path fill="#fff" d="M12 0C5.373 0 0 5.373 0 12s5.373 12 12 12 12-5.373 12-12S18.627 0 12 0zM8.626 17C7.729 17 7 16.273 7 15.376a1.626 1.626 0 0 1 3.252 0c0 .897-.729 1.624-1.626 1.624zm3.885 0A5.57 5.57 0 0 0 7 11.496V9.09c4.361.03 7.889 3.555 7.92 7.91h-2.409zm4.081 0C16.576 11.703 12.289 7.429 7 7.406V5c6.623.023 11.985 5.384 12 12h-2.408z"></path></svg><svg width="24" height="24" viewBox="0 0 24 24" id="skype" x="192" y="192"><path fill="#fff" d="M15.748 13.648c0 1.773-1.414 2.935-3.523 2.935-1.855 0-3.721-.845-3.711-2.299.002-.439.328-.841.763-.841 1.093 0 1.083 1.63 2.822 1.63 1.221 0 1.638-.669 1.638-1.134 0-1.684-5.275-.652-5.275-3.817 0-1.713 1.401-2.895 3.604-2.765 2.101.124 3.332 1.052 3.451 1.918.059.566-.316 1.007-.968 1.007-.95 0-1.047-1.272-2.684-1.272-.738 0-1.361.308-1.361.977 0 1.397 5.244.586 5.244 3.661zM24 12c0 6.627-5.373 12-12 12S0 18.627 0 12 5.373 0 12 0s12 5.373 12 12zm-5.591 1.147c.792-4.53-3.159-8.407-7.614-7.571-3.396-2.077-7.293 1.882-5.21 5.267-.811 4.519 3.139 8.447 7.631 7.589 3.401 2.062 7.287-1.902 5.193-5.285z"></path></svg><svg width="24" height="24" viewBox="0 0 24 24" id="tumblr" x="216" y="216"><path fill="#fff" d="M12 0C5.373 0 0 5.373 0 12s5.373 12 12 12 12-5.373 12-12S18.627 0 12 0zm5.158 17.897c-.459.604-2.004 1.103-3.403 1.103-3.482 0-5.255-1.283-5.255-4.001v-3.592H6.809l-.059-.059V8.584l.039-.056.156-.052c1.398-.466 2.296-1.252 2.494-2.873A.677.677 0 0 1 10.102 5h4.172l.058.059v2.81l.058.059h2.219l.06.059v3.363l-.06.059H14.38l-.06.059V14.8c.002.09.006.362.096.362h1.909l.057.04.868 2.574-.092.121zm-1.145-1.994l.581 1.721-.014.062c-.438.421-1.49.733-2.35.748l-.098.001c-2.828 0-3.313-2.16-3.313-3.435v-4.106l-.059-.059H9.138l-.059-.059-.014-1.786.037-.054c1.462-.569 2.278-1.514 2.492-3.263.013-.097.093-.1.094-.1h2.011l.059.059v2.81l.059.059h2.219l.058.059v2.217l-.058.059h-2.229l-.057.059v3.911c.014.839.417 1.265 1.205 1.265.316 0 .65-.074.982-.201l.076.033z"></path></svg><svg width="24" height="24" viewBox="0 0 24 24" id="twitter" x="240" y="240"><path fill="#fff" d="M12 0C5.373 0 0 5.373 0 12s5.373 12 12 12 12-5.373 12-12S18.627 0 12 0zm6.066 9.645c.183 4.04-2.83 8.544-8.164 8.544A8.127 8.127 0 0 1 5.5 16.898a5.778 5.778 0 0 0 4.252-1.189 2.879 2.879 0 0 1-2.684-1.995 2.88 2.88 0 0 0 1.298-.049c-1.381-.278-2.335-1.522-2.304-2.853.388.215.83.344 1.301.359a2.877 2.877 0 0 1-.889-3.835 8.153 8.153 0 0 0 5.92 3.001 2.876 2.876 0 0 1 4.895-2.62 5.73 5.73 0 0 0 1.824-.697 2.884 2.884 0 0 1-1.263 1.589 5.73 5.73 0 0 0 1.649-.453 5.765 5.765 0 0 1-1.433 1.489z"></path></svg><svg width="24" height="24" viewBox="0 0 24 24" id="vimeo" x="264" y="264"><path fill="#fff" d="M12 0C5.373 0 0 5.373 0 12s5.373 12 12 12 12-5.373 12-12S18.627 0 12 0zm5.82 11.419c-1.306 2.792-4.463 6.595-6.458 6.595-1.966 0-2.25-4.192-3.324-6.983-.527-1.372-.868-1.058-1.858-.364l-.604-.779c1.444-1.27 2.889-2.745 3.778-2.826.998-.096 1.615.587 1.845 2.051.305 1.924.729 4.91 1.472 4.91.577 0 2.003-2.369 2.076-3.215.13-1.24-.912-1.277-1.815-.89 1.43-4.689 7.383-3.825 4.888 1.501z"></path></svg><svg width="24" height="24" viewBox="0 0 24 24" id="vk" x="288" y="288"><path fill="#fff" d="M12 0C5.373 0 0 5.373 0 12s5.373 12 12 12 12-5.373 12-12S18.627 0 12 0zm6.344 16.163h-1.867c-1.055 0-1.232-.601-2.102-1.469-.785-.785-1.22-.183-1.202.935.006.297-.141.534-.495.534-1.105 0-2.694.156-4.304-1.58C6.727 12.804 5 9.235 5 8.884c0-.208.172-.301.459-.301h1.898c.503 0 .545.249.686.568.584 1.331 1.981 4.002 2.354 2.511.214-.856.301-2.839-.615-3.01-.52-.096.396-.652 1.722-.652.33 0 .688.035 1.054.12.673.156.676.458.666.898-.034 1.666-.235 2.786.204 3.069.419.271 1.521-1.502 2.104-2.871.159-.378.191-.632.643-.632h2.322c1.216 0-.159 1.748-1.21 3.112-.847 1.099-.802 1.12.183 2.034.701.651 1.53 1.54 1.53 2.043 0 .238-.186.39-.656.39z"></path></svg><svg width="24" height="24" viewBox="0 0 24 24" id="whatsapp" x="312" y="312"><path fill="#fff" d="M12.031 6.172a5.773 5.773 0 0 0-5.768 5.766c-.001 1.298.38 2.27 1.019 3.287L6.7 17.353l2.182-.573c.978.58 1.911.928 3.145.929a5.776 5.776 0 0 0 5.768-5.766 5.764 5.764 0 0 0-5.764-5.771zm3.392 8.244c-.144.405-.837.774-1.17.824a2.371 2.371 0 0 1-1.092-.069c-.252-.08-.575-.187-.988-.365-1.739-.751-2.874-2.502-2.961-2.617-.087-.116-.708-.94-.708-1.793s.448-1.273.607-1.446a.638.638 0 0 1 .462-.217l.332.006c.106.005.249-.04.39.298.144.347.491 1.2.534 1.287.043.087.072.188.014.304-.058.116-.087.188-.173.289l-.26.304c-.087.086-.177.18-.076.354.101.174.449.741.964 1.201.662.591 1.221.774 1.394.86s.274.072.376-.043c.101-.116.433-.506.549-.68.116-.173.231-.145.39-.087s1.011.477 1.184.564.289.13.332.202c.045.072.045.419-.1.824zM12 0C5.373 0 0 5.373 0 12s5.373 12 12 12 12-5.373 12-12S18.627 0 12 0zm.029 18.88a6.944 6.944 0 0 1-3.318-.844L5.034 19l.984-3.595a6.922 6.922 0 0 1-.926-3.468C5.093 8.112 8.205 5 12.029 5a6.891 6.891 0 0 1 4.907 2.034 6.893 6.893 0 0 1 2.03 4.908c-.001 3.825-3.113 6.938-6.937 6.938z"></path></svg><svg width="24" height="24" viewBox="0 0 24 24" id="youtube" x="336" y="336"><path fill="#fff" d="M10.918 13.933h.706v3.795h-.706v-.419c-.13.154-.266.272-.405.353-.381.218-.902.213-.902-.557v-3.172h.705v2.909c0 .153.037.256.188.256.138 0 .329-.176.415-.284v-2.881zm.642-4.181c.2 0 .311-.16.311-.377V7.521c0-.223-.098-.38-.324-.38-.208 0-.309.161-.309.38v1.854c-.001.21.117.377.322.377zm-1.941 2.831H7.18v.747h.823v4.398h.795V13.33h.821v-.747zm4.721 2.253v2.105c0 .47-.176.834-.645.834-.259 0-.474-.094-.671-.34v.292h-.712v-5.145h.712v1.656c.16-.194.375-.354.628-.354.517.001.688.437.688.952zm-.727.043c0-.128-.024-.225-.075-.292-.086-.113-.244-.125-.367-.062l-.146.116v2.365l.167.134c.115.058.283.062.361-.039.04-.054.061-.141.061-.262v-1.96zM24 12c0 6.627-5.373 12-12 12S0 18.627 0 12 5.373 0 12 0s12 5.373 12 12zM13.254 9.749c0 .394.12.712.519.712.224 0 .534-.117.855-.498v.44h.741V6.417h-.741v3.025c-.09.113-.291.299-.436.299-.159 0-.197-.108-.197-.269V6.417h-.741v3.332zm-2.779-2.294v1.954c0 .703.367 1.068 1.085 1.068.597 0 1.065-.399 1.065-1.068V7.455a1.04 1.04 0 0 0-1.065-1.071c-.652 0-1.085.432-1.085 1.071zM7.714 5l.993 3.211v2.191h.835V8.211L10.513 5h-.848L9.13 7.16 8.555 5h-.841zm10.119 10.208c-.013-2.605-.204-3.602-1.848-3.714-1.518-.104-6.455-.103-7.971 0-1.642.112-1.835 1.104-1.848 3.714.013 2.606.204 3.602 1.848 3.715 1.516.103 6.453.103 7.971 0 1.643-.113 1.835-1.104 1.848-3.715zm-.885-.255v.966h-1.35v.716c0 .285.024.531.308.531.298 0 .315-.2.315-.531v-.264h.727v.285c0 .731-.313 1.174-1.057 1.174-.676 0-1.019-.491-1.019-1.174v-1.704c0-.659.435-1.116 1.071-1.116.678.001 1.005.431 1.005 1.117zm-.726-.007c0-.256-.054-.445-.309-.445-.261 0-.314.184-.314.445v.385h.623v-.385z"></path></svg></svg>